<svg version="1.1" id="Layer_1" xmlns="http://www.w3.org/2000/svg" xmlns:xlink="http://www.w3.org/1999/xlink" x="0px" y="0px"
	 width="100%" viewBox="0 0 4096 1752" enable-background="new 0 0 4096 1752" xml:space="preserve">
<path fill="none" opacity="0" stroke="none" 
	d="
M3040.000000,1754.000000 
	C2026.666870,1754.000000 1014.333679,1754.000000 2.000408,1754.000000 
	C2.000272,1170.000244 2.000272,586.000549 2.000136,2.000428 
	C3.999714,2.000000 5.999428,2.000000 7.999142,2.000000 
	C1371.332275,2.000000 2734.665283,2.000000 4097.999023,2.000000 
	C4097.999023,585.999329 4097.999023,1169.998657 4097.999512,1753.999023 
	C3745.666748,1754.000000 3393.333252,1754.000000 3040.000000,1754.000000 
M3580.368652,918.631592 
	C3577.758789,918.306641 3575.149414,917.702148 3572.539062,917.698486 
	C3530.166016,917.639343 3487.793213,917.620850 3445.420410,917.736328 
	C3442.595703,917.744019 3439.774414,918.897705 3435.396729,919.586853 
	C3427.734131,921.488159 3420.083496,923.439514 3412.404785,925.273254 
	C3407.295410,926.493408 3402.399414,927.726868 3397.813477,930.816467 
	C3382.925537,940.845764 3373.037598,954.554077 3366.659912,971.032837 
	C3359.384521,989.829834 3352.414307,1008.746399 3345.006836,1027.490601 
	C3333.820312,1055.795776 3322.369629,1083.996582 3310.904541,1112.557739 
	C3309.069092,1109.104126 3306.918945,1105.833252 3305.504883,1102.270142 
	C3297.248291,1081.461914 3289.083496,1060.616211 3281.043945,1039.723145 
	C3272.766357,1018.210938 3264.723145,996.608704 3256.453369,975.093506 
	C3254.212891,969.264099 3252.108154,963.257874 3248.929688,957.936890 
	C3239.563721,942.255737 3227.508789,929.467163 3209.762939,924.826538 
	C3209.890625,905.717407 3210.044678,887.159729 3210.128174,868.601807 
	C3210.183594,856.269409 3209.902344,843.930969 3210.197754,831.605408 
	C3210.572998,815.961304 3209.409424,800.641602 3205.776367,785.275391 
	C3202.694824,772.242798 3199.334717,759.837585 3190.434570,749.383179 
	C3181.255615,738.602051 3170.703125,728.955444 3157.356445,724.932434 
	C3143.275146,720.688049 3128.744141,717.247192 3113.526367,717.501038 
	C3080.537598,718.051392 3047.532959,717.687073 3014.534912,717.647339 
	C3010.884766,717.642944 3007.234863,717.317566 3003.610840,715.517334 
	C3004.746094,708.057800 3005.692383,700.563416 3007.059570,693.146667 
	C3009.323975,680.860962 3012.198486,668.680054 3014.192139,656.354065 
	C3016.491455,642.139038 3016.885010,627.614441 3021.549072,613.789917 
	C3022.595947,610.686584 3023.868164,607.255310 3023.506836,604.153259 
	C3022.197021,592.909424 3028.106689,582.916016 3028.462158,571.961426 
	C3028.629150,566.806580 3030.528076,561.720581 3031.499512,556.576477 
	C3033.150635,547.833984 3035.923096,539.077209 3035.972656,530.313599 
	C3036.039795,518.491882 3039.493408,507.564148 3041.768311,496.284210 
	C3044.564697,482.417847 3048.434082,468.557892 3049.195312,454.551483 
	C3049.921875,441.182312 3054.079834,428.735657 3055.973877,415.751892 
	C3057.632324,404.383575 3060.297607,393.166077 3062.262695,381.837646 
	C3064.733643,367.592529 3067.298340,353.347900 3069.146973,339.015930 
	C3070.454102,328.880585 3072.084717,318.440063 3070.972412,308.424377 
	C3069.462646,294.827118 3067.709473,281.269470 3063.472412,267.803009 
	C3059.362305,254.739273 3054.473877,242.129700 3047.338135,231.007172 
	C3033.228760,209.015579 3014.226074,191.675247 2991.132812,178.795425 
	C2974.477295,169.506256 2956.129883,165.242477 2938.104492,160.898682 
	C2924.494629,157.619003 2909.755127,158.438736 2895.518311,158.436737 
	C2204.593750,158.339798 1513.669067,158.387451 822.744446,158.196960 
	C799.743713,158.190613 777.397705,160.769150 755.166382,166.467545 
	C736.463501,171.261520 719.101929,179.054794 702.231323,188.035583 
	C681.651367,198.991013 663.032654,212.932693 646.584106,229.341385 
	C631.075745,244.812225 617.877991,262.175323 606.878479,281.388733 
	C594.891235,302.327576 587.356750,324.595825 582.389221,347.941559 
	C579.722534,360.474152 577.236755,373.047760 574.864502,385.639618 
	C572.974854,395.669739 571.321594,405.745758 569.672607,415.819305 
	C568.029907,425.854126 566.882996,435.983734 564.875244,445.942017 
	C561.627197,462.052765 557.683838,478.022675 554.380432,494.123138 
	C552.993103,500.885010 552.866882,507.904388 551.500000,514.671936 
	C549.162354,526.247009 546.020813,537.660706 543.720459,549.242126 
	C540.010376,567.920898 536.834167,586.705200 533.188965,605.397522 
	C530.976135,616.744446 527.973206,627.942749 525.936646,639.317261 
	C524.023804,650.000916 523.355530,660.911377 521.352295,671.574097 
	C518.012512,689.350464 513.851013,706.971130 510.402679,724.728699 
	C507.701508,738.638245 505.798187,752.702881 503.093262,766.611572 
	C500.514526,779.871155 497.152924,792.977478 494.503265,806.224670 
	C490.764252,824.918274 487.294983,843.666931 483.840302,862.415955 
	C481.039337,877.617065 478.478302,892.862366 475.709900,908.069641 
	C474.708618,913.569641 473.342102,919.002075 472.266327,924.489685 
	C468.713074,942.615173 465.175903,960.743958 461.713257,978.886902 
	C459.622833,989.840027 457.814758,1000.848206 455.626251,1011.780884 
	C454.210175,1018.854980 451.952179,1025.772095 450.742279,1032.873779 
	C447.700378,1050.729126 446.139038,1068.916382 441.878326,1086.459106 
	C438.448517,1100.580811 436.046600,1114.798950 433.328583,1129.015259 
	C428.455292,1154.504883 422.883301,1179.860352 417.881622,1205.326538 
	C415.090637,1219.536987 413.063660,1233.896484 410.327789,1248.118652 
	C406.523926,1267.893188 402.233704,1287.573975 398.419678,1307.346558 
	C394.741791,1326.413208 391.279572,1345.523682 387.954681,1364.655273 
	C385.028351,1381.493286 382.037384,1398.335571 379.775360,1415.269531 
	C377.074982,1435.485229 380.041229,1455.141113 385.266479,1474.895020 
	C391.543518,1498.625122 403.289093,1518.745361 419.701263,1536.528809 
	C429.643219,1547.301392 441.391022,1555.674316 453.888489,1563.277832 
	C467.655243,1571.653931 482.650360,1576.666992 498.047272,1580.384766 
	C508.909210,1583.007446 520.172180,1585.453491 531.256958,1585.457153 
	C1236.846558,1585.692383 1942.436279,1585.653076 2648.025879,1585.739136 
	C2670.321777,1585.741821 2692.327881,1584.777466 2713.550781,1577.010986 
	C2719.701416,1574.760254 2726.107422,1573.208008 2734.210449,1571.464355 
	C2772.534668,1571.471558 2810.868408,1570.973022 2849.179199,1571.698730 
	C2868.447510,1572.063721 2886.629883,1567.478516 2905.020508,1563.268677 
	C2906.895264,1562.839355 2908.705811,1561.712891 2910.303711,1560.570679 
	C2914.876221,1557.302002 2919.495117,1554.061279 2923.786133,1550.442749 
	C2933.559814,1542.200928 2941.897949,1532.399780 2945.495117,1520.172363 
	C2949.565674,1506.335693 2953.490723,1492.262939 2952.458252,1477.381470 
	C2951.814209,1468.094849 2952.338623,1458.727173 2952.338623,1449.395874 
	C2952.338623,1304.427856 2952.336182,1159.459961 2952.351318,1014.491943 
	C2952.351807,1010.623047 2952.546875,1006.754150 2952.652344,1002.832642 
	C2958.426270,1002.832642 2962.984619,1002.832642 2965.801514,1002.832642 
	C2972.029053,1019.626160 2977.335938,1035.609375 2983.831787,1051.093628 
	C2995.987793,1080.069702 3009.015869,1108.678589 3021.341064,1137.584961 
	C3033.812988,1166.835205 3045.720459,1196.325684 3058.151611,1225.593750 
	C3075.088135,1265.468506 3092.355225,1305.202637 3109.350342,1345.052490 
	C3122.583740,1376.081909 3135.577393,1407.213501 3148.754395,1438.267090 
	C3158.827881,1462.006226 3168.547119,1485.914307 3179.388916,1509.299927 
	C3183.927979,1519.090942 3189.919922,1528.683716 3197.189453,1536.583252 
	C3203.026367,1542.926392 3211.254395,1547.931152 3219.367920,1551.123901 
	C3232.938721,1556.463623 3247.608154,1558.105591 3262.203369,1558.218384 
	C3294.860840,1558.471069 3327.523193,1558.464233 3360.180176,1558.185059 
	C3368.757568,1558.111816 3377.408447,1557.148560 3385.868408,1555.684937 
	C3392.971436,1554.455933 3400.322266,1552.878174 3406.727051,1549.745117 
	C3422.493408,1542.033081 3433.682129,1528.870850 3440.992188,1513.523193 
	C3451.463623,1491.539185 3459.956055,1468.612305 3469.281494,1446.083008 
	C3472.543457,1438.202759 3475.667725,1430.264160 3479.032471,1422.428345 
	C3486.593506,1404.821655 3494.488525,1387.355347 3501.833008,1369.659668 
	C3510.166016,1349.580933 3517.826660,1329.222778 3526.181396,1309.153442 
	C3535.716797,1286.247803 3545.822266,1263.580200 3555.449707,1240.712280 
	C3567.757812,1211.477905 3579.768799,1182.118530 3592.034668,1152.866333 
	C3601.835693,1129.492554 3611.820557,1106.195557 3621.736816,1082.870117 
	C3628.450684,1067.077148 3635.904541,1051.551514 3641.698242,1035.428711 
	C3646.804199,1021.220276 3653.064697,1006.919922 3652.120605,991.353516 
	C3651.667969,983.890015 3648.764648,976.608521 3647.576416,969.148254 
	C3645.927979,958.797485 3640.264893,950.655579 3633.177246,943.762024 
	C3626.612793,937.377197 3619.501709,930.717102 3611.342529,927.031677 
	C3602.184082,922.894897 3591.580078,921.958923 3580.368652,918.631592 
z"/>
<path fill="#5AC7E0" opacity="1.000000" stroke="none" 
	d="
M2732.396484,1571.335449 
	C2726.107422,1573.208008 2719.701416,1574.760254 2713.550781,1577.010986 
	C2692.327881,1584.777466 2670.321777,1585.741821 2648.025879,1585.739136 
	C1942.436279,1585.653076 1236.846558,1585.692383 531.256958,1585.457153 
	C520.172180,1585.453491 508.909210,1583.007446 498.047272,1580.384766 
	C482.650360,1576.666992 467.655243,1571.653931 453.888489,1563.277832 
	C441.391022,1555.674316 429.643219,1547.301392 419.701263,1536.528809 
	C403.289093,1518.745361 391.543518,1498.625122 385.266479,1474.895020 
	C380.041229,1455.141113 377.074982,1435.485229 379.775360,1415.269531 
	C382.037384,1398.335571 385.028351,1381.493286 387.954681,1364.655273 
	C391.279572,1345.523682 394.741791,1326.413208 398.419678,1307.346558 
	C402.233704,1287.573975 406.523926,1267.893188 410.327789,1248.118652 
	C413.063660,1233.896484 415.090637,1219.536987 417.881622,1205.326538 
	C422.883301,1179.860352 428.455292,1154.504883 433.328583,1129.015259 
	C436.046600,1114.798950 438.448517,1100.580811 441.878326,1086.459106 
	C446.139038,1068.916382 447.700378,1050.729126 450.742279,1032.873779 
	C451.952179,1025.772095 454.210175,1018.854980 455.626251,1011.780884 
	C457.814758,1000.848206 459.622833,989.840027 461.713257,978.886902 
	C465.175903,960.743958 468.713074,942.615173 472.266327,924.489685 
	C473.342102,919.002075 474.708618,913.569641 475.709900,908.069641 
	C478.478302,892.862366 481.039337,877.617065 483.840302,862.415955 
	C487.294983,843.666931 490.764252,824.918274 494.503265,806.224670 
	C497.152924,792.977478 500.514526,779.871155 503.093262,766.611572 
	C505.798187,752.702881 507.701508,738.638245 510.402679,724.728699 
	C513.851013,706.971130 518.012512,689.350464 521.352295,671.574097 
	C523.355530,660.911377 524.023804,650.000916 525.936646,639.317261 
	C527.973206,627.942749 530.976135,616.744446 533.188965,605.397522 
	C536.834167,586.705200 540.010376,567.920898 543.720459,549.242126 
	C546.020813,537.660706 549.162354,526.247009 551.500000,514.671936 
	C552.866882,507.904388 552.993103,500.885010 554.380432,494.123138 
	C557.683838,478.022675 561.627197,462.052765 564.875244,445.942017 
	C566.882996,435.983734 568.029907,425.854126 569.672607,415.819305 
	C571.321594,405.745758 572.974854,395.669739 574.864502,385.639618 
	C577.236755,373.047760 579.722534,360.474152 582.389221,347.941559 
	C587.356750,324.595825 594.891235,302.327576 606.878479,281.388733 
	C617.877991,262.175323 631.075745,244.812225 646.584106,229.341385 
	C663.032654,212.932693 681.651367,198.991013 702.231323,188.035583 
	C719.101929,179.054794 736.463501,171.261520 755.166382,166.467545 
	C777.397705,160.769150 799.743713,158.190613 822.744446,158.196960 
	C1513.669067,158.387451 2204.593750,158.339798 2895.518311,158.436737 
	C2909.755127,158.438736 2924.494629,157.619003 2938.104492,160.898682 
	C2956.129883,165.242477 2974.477295,169.506256 2991.132812,178.795425 
	C3014.226074,191.675247 3033.228760,209.015579 3047.338135,231.007172 
	C3054.473877,242.129700 3059.362305,254.739273 3063.472412,267.803009 
	C3067.709473,281.269470 3069.462646,294.827118 3070.972412,308.424377 
	C3072.084717,318.440063 3070.454102,328.880585 3069.146973,339.015930 
	C3067.298340,353.347900 3064.733643,367.592529 3062.262695,381.837646 
	C3060.297607,393.166077 3057.632324,404.383575 3055.973877,415.751892 
	C3054.079834,428.735657 3049.921875,441.182312 3049.195312,454.551483 
	C3048.434082,468.557892 3044.564697,482.417847 3041.768311,496.284210 
	C3039.493408,507.564148 3036.039795,518.491882 3035.972656,530.313599 
	C3035.923096,539.077209 3033.150635,547.833984 3031.499512,556.576477 
	C3030.528076,561.720581 3028.629150,566.806580 3028.462158,571.961426 
	C3028.106689,582.916016 3022.197021,592.909424 3023.506836,604.153259 
	C3023.868164,607.255310 3022.595947,610.686584 3021.549072,613.789917 
	C3016.885010,627.614441 3016.491455,642.139038 3014.192139,656.354065 
	C3012.198486,668.680054 3009.323975,680.860962 3007.059570,693.146667 
	C3005.692383,700.563416 3004.746094,708.057800 3002.845215,716.697876 
	C2998.251709,718.657532 2994.424316,720.115356 2990.595947,720.118103 
	C2828.938477,720.232117 2667.281250,720.220154 2505.623779,720.189331 
	C2502.420898,720.188721 2499.218018,719.778931 2494.833984,719.479309 
	C2494.833984,714.376221 2494.833984,710.117432 2494.833984,705.858704 
	C2494.834961,613.530701 2494.845459,521.202637 2494.805664,428.874634 
	C2494.803955,424.694916 2494.348145,420.515350 2494.119873,416.607483 
	C2481.537354,414.469269 1096.120850,414.968506 1087.985596,417.105042 
	C1087.985596,712.674133 1087.985596,1008.427734 1087.985596,1304.031982 
	C1098.503296,1306.323242 2486.440186,1305.980957 2494.837646,1303.540161 
	C2494.837646,1283.572021 2494.838379,1263.292847 2494.837646,1243.013794 
	C2494.837158,1222.681641 2494.834229,1202.349487 2494.833740,1182.017334 
	C2494.833252,1162.018433 2494.833496,1142.019653 2494.833984,1122.020752 
	C2494.834229,1101.688599 2494.659912,1081.354492 2494.885498,1061.024902 
	C2495.109375,1040.853638 2493.909424,1020.632202 2495.627441,1000.189453 
	C2535.133301,1000.189453 2573.613037,1000.189453 2613.459229,1000.189453 
	C2613.459229,1005.460999 2613.459229,1010.038025 2613.459229,1014.615112 
	C2613.459229,1165.606445 2613.536133,1316.597900 2613.323975,1467.588867 
	C2613.305664,1480.727783 2615.461182,1493.328369 2617.879150,1506.112183 
	C2620.252686,1518.661011 2625.387451,1529.500854 2633.738281,1538.877319 
	C2643.377441,1549.700439 2654.379150,1558.392212 2668.924805,1562.123901 
	C2685.817871,1566.457886 2702.765381,1569.172485 2720.285889,1568.391479 
	C2724.270996,1568.213867 2728.356934,1570.294434 2732.396484,1571.335449 
M2340.468506,1473.804932 
	C2333.961914,1486.733398 2329.354004,1500.356689 2323.770020,1515.564575 
	C2329.874023,1515.564575 2334.112793,1515.598389 2338.351074,1515.557739 
	C2348.365723,1515.461304 2348.400146,1515.460693 2352.092041,1506.034546 
	C2362.291260,1479.993896 2372.472168,1453.946167 2382.624512,1427.887207 
	C2384.273438,1423.654785 2385.739014,1419.350586 2387.482422,1414.546997 
	C2378.057861,1411.439697 2369.386719,1413.565430 2360.941162,1412.786865 
	C2354.633545,1412.205322 2350.456055,1414.531982 2346.862793,1419.925415 
	C2337.079346,1434.609863 2326.752197,1448.933350 2316.557129,1463.340698 
	C2315.195801,1465.264648 2313.351562,1466.846802 2310.381104,1470.036987 
	C2312.738770,1449.938110 2316.642334,1432.211304 2317.286621,1412.823730 
	C2308.581787,1412.823730 2301.282227,1413.309082 2294.075195,1412.698242 
	C2285.500244,1411.971436 2280.780762,1415.232300 2277.502197,1423.288940 
	C2266.335205,1450.732178 2254.506592,1477.906006 2243.003418,1505.213257 
	C2241.886719,1507.864624 2241.273682,1510.728027 2240.013184,1514.843628 
	C2245.831787,1515.110962 2250.683594,1515.129395 2255.490234,1515.605347 
	C2261.800049,1516.229980 2265.176270,1513.492798 2267.382324,1507.617554 
	C2272.296875,1494.531128 2277.734863,1481.640137 2283.048828,1468.706055 
	C2283.976807,1466.446899 2285.339844,1464.366333 2286.501953,1462.203247 
	C2287.101807,1462.385010 2287.701904,1462.566895 2288.301758,1462.748657 
	C2286.034912,1479.728149 2283.768066,1496.707764 2281.483154,1513.821899 
	C2284.455078,1514.627930 2285.994629,1515.297729 2287.580566,1515.436646 
	C2304.904541,1516.954468 2305.630615,1516.606934 2315.387939,1502.314575 
	C2322.845459,1491.390869 2330.258301,1480.436646 2338.854248,1470.434448 
	C2339.589600,1471.110352 2340.325195,1471.786255 2340.468506,1473.804932 
M1365.373535,1515.564209 
	C1370.547241,1515.347168 1375.720825,1515.130005 1381.824097,1514.873779 
	C1380.331787,1499.725220 1374.452637,1487.088745 1369.658203,1473.610229 
	C1373.543213,1472.256714 1376.682983,1471.316162 1379.704224,1470.084473 
	C1393.691528,1464.380737 1402.678955,1454.568848 1404.883545,1439.211792 
	C1406.741943,1426.266724 1400.371460,1416.870728 1387.674927,1414.315796 
	C1383.774170,1413.530762 1379.754883,1413.005981 1375.782959,1412.959839 
	C1360.801880,1412.785767 1345.815796,1412.999512 1330.836304,1412.763672 
	C1325.412720,1412.678345 1322.285645,1414.751831 1320.214355,1419.781860 
	C1308.173828,1449.021851 1295.908325,1478.168945 1283.799194,1507.380737 
	C1282.970459,1509.379761 1282.796753,1511.650146 1282.052246,1514.987549 
	C1288.150635,1515.197021 1293.368530,1515.155518 1298.543091,1515.609009 
	C1305.259155,1516.197632 1308.985474,1513.203125 1311.271973,1507.025146 
	C1314.388916,1498.603760 1318.236572,1490.455811 1321.510620,1482.088745 
	C1323.479858,1477.056519 1326.710938,1474.903931 1332.183960,1475.152710 
	C1340.148438,1475.514771 1343.649902,1477.413452 1346.339722,1485.237671 
	C1348.824097,1492.463989 1350.561157,1499.946777 1352.639648,1507.313110 
	C1354.776123,1514.884033 1354.782715,1514.882202 1365.373535,1515.564209 
M1669.109741,1422.369385 
	C1669.821533,1419.698120 1670.533447,1417.026855 1671.248535,1414.343384 
	C1669.073120,1413.627686 1668.151245,1413.125610 1667.195435,1413.049316 
	C1664.877441,1412.864258 1662.540771,1412.766357 1660.216797,1412.828491 
	C1645.128906,1413.232056 1647.002563,1409.891235 1640.007446,1426.286133 
	C1628.778442,1452.604614 1617.777100,1479.020508 1606.758545,1505.428467 
	C1605.667969,1508.042480 1605.125854,1510.885498 1603.831909,1515.330444 
	C1612.398438,1515.330444 1619.592163,1515.690308 1626.706909,1515.098389 
	C1628.690308,1514.933350 1631.094482,1512.291016 1632.167725,1510.200806 
	C1634.896973,1504.886108 1637.488647,1499.395020 1639.222168,1493.696655 
	C1642.971680,1481.372681 1653.814209,1477.612915 1663.580444,1471.038086 
	C1665.141235,1474.161865 1666.314819,1476.092407 1667.107544,1478.168579 
	C1670.904785,1488.114136 1674.450317,1498.159058 1678.430786,1508.029297 
	C1679.476318,1510.621826 1681.516602,1514.462646 1683.511841,1514.737305 
	C1692.130737,1515.923340 1700.958496,1516.692871 1710.300293,1514.052124 
	C1708.274780,1508.424316 1706.827148,1504.019653 1705.115845,1499.720093 
	C1700.194702,1487.355469 1695.114868,1475.053955 1690.200195,1462.686768 
	C1687.065552,1454.798584 1687.139893,1454.378662 1694.005981,1449.562134 
	C1707.625977,1440.008057 1721.385498,1430.652954 1734.995728,1421.085449 
	C1737.459473,1419.353882 1741.084595,1418.325073 1741.250610,1412.814087 
	C1733.298462,1412.814087 1725.740356,1413.050049 1718.204468,1412.741455 
	C1711.875732,1412.482300 1706.566040,1414.370483 1701.540283,1418.121948 
	C1691.142578,1425.883911 1680.564331,1433.405151 1670.013184,1440.959839 
	C1667.467163,1442.782715 1664.737915,1444.349976 1662.092896,1446.034790 
	C1661.465942,1445.539551 1660.839111,1445.044189 1660.212158,1444.548828 
	C1662.963989,1437.605591 1665.715820,1430.662476 1669.109741,1422.369385 
M744.624146,1477.594360 
	C736.827759,1487.112915 728.970276,1496.582520 721.277954,1506.184448 
	C719.362488,1508.575439 716.225891,1510.687378 717.764282,1515.564331 
	C721.737549,1515.564331 725.730164,1515.151123 729.606567,1515.646729 
	C738.847046,1516.828613 745.171448,1513.197754 750.735229,1505.822998 
	C761.348389,1491.755249 757.479309,1493.432617 777.231628,1493.328979 
	C780.558167,1493.311523 783.890442,1493.206665 787.209961,1493.360229 
	C790.735229,1493.523193 794.248535,1493.945923 798.771667,1494.343506 
	C798.771667,1499.935425 798.779846,1504.524292 798.768921,1509.113037 
	C798.760864,1512.480713 799.804932,1515.232910 803.648071,1515.307617 
	C810.137207,1515.433960 816.632568,1515.238037 823.941711,1515.170044 
	C825.885376,1480.673218 825.677551,1447.601807 825.663025,1413.355835 
	C818.950500,1413.151611 813.366943,1413.299683 807.856140,1412.736206 
	C800.399475,1411.973755 795.524536,1415.112061 790.963745,1420.854126 
	C776.073181,1439.601562 760.702393,1457.967529 744.624146,1477.594360 
M2134.837158,1433.798584 
	C2124.057617,1446.892456 2113.116943,1459.857788 2102.542969,1473.115845 
	C2091.897949,1486.463135 2080.276855,1499.085327 2069.209229,1515.031372 
	C2077.292725,1515.250732 2083.134766,1515.204834 2088.942871,1515.626221 
	C2094.457764,1516.026123 2098.972168,1514.455200 2101.574951,1509.531494 
	C2109.372070,1494.781494 2121.960205,1491.139038 2137.417969,1493.252075 
	C2142.501221,1493.947021 2147.698486,1493.805298 2153.524170,1494.077881 
	C2153.524170,1501.619263 2153.524170,1507.784668 2153.524170,1514.828491 
	C2161.980957,1515.427979 2169.663818,1516.834839 2178.229980,1513.764526 
	C2179.998047,1480.597534 2179.871338,1447.540527 2179.760498,1414.143066 
	C2164.144287,1411.731201 2150.053223,1409.589600 2141.313477,1425.664551 
	C2139.907227,1428.250854 2137.616943,1430.356567 2134.837158,1433.798584 
M1817.145386,1438.123291 
	C1798.594482,1460.753784 1780.019653,1483.364868 1761.528076,1506.043823 
	C1759.605225,1508.401978 1758.177368,1511.163696 1756.101807,1514.387695 
	C1772.565552,1517.319214 1786.205444,1517.111206 1794.330811,1501.323730 
	C1795.223022,1499.590454 1796.633179,1498.013916 1798.116943,1496.726074 
	C1799.572266,1495.463013 1801.386841,1493.874023 1803.114380,1493.784058 
	C1814.625488,1493.183960 1826.164795,1492.735352 1838.208618,1494.069580 
	C1838.708740,1501.551392 1839.139404,1507.993042 1839.593506,1514.786377 
	C1848.106934,1514.786377 1855.566162,1514.786377 1862.801147,1514.786377 
	C1865.999634,1503.370728 1866.676880,1422.590698 1863.421753,1412.835083 
	C1857.641113,1412.835083 1851.388672,1413.037354 1845.156250,1412.772095 
	C1840.017822,1412.553345 1836.284546,1414.435181 1833.173218,1418.466309 
	C1828.299072,1424.781738 1823.135742,1430.873901 1817.145386,1438.123291 
M2037.983887,1445.173096 
	C2038.534668,1443.646606 2039.492065,1442.140991 2039.571655,1440.590332 
	C2040.199829,1428.349243 2032.494751,1417.591797 2019.556641,1414.074951 
	C2005.761475,1410.325317 1991.799194,1410.476074 1978.415894,1416.140869 
	C1974.190430,1417.929443 1970.079346,1420.476318 1966.608887,1423.477295 
	C1950.100952,1437.752319 1952.804077,1459.119995 1972.218628,1468.733765 
	C1978.481445,1471.834961 1985.139648,1474.184814 1991.214111,1477.596069 
	C1993.741577,1479.015381 1996.771484,1482.329834 1996.742920,1484.749268 
	C1996.712646,1487.319946 1993.859985,1490.821289 1991.309448,1492.219727 
	C1983.344360,1496.587036 1974.643677,1496.804077 1966.168091,1493.725830 
	C1964.041260,1492.953369 1962.298462,1490.357788 1961.031982,1488.214355 
	C1959.934570,1486.357178 1959.761841,1483.953735 1959.016235,1481.181030 
	C1953.023804,1481.464844 1947.411865,1481.567627 1941.830811,1482.038452 
	C1935.661011,1482.558960 1934.619995,1483.845459 1934.277344,1490.162964 
	C1933.716675,1500.500244 1938.189819,1508.226318 1948.206055,1512.078979 
	C1967.893921,1519.651489 1987.573608,1519.292114 2005.942017,1508.517456 
	C2011.969116,1504.982300 2017.401733,1499.153442 2021.065918,1493.131958 
	C2029.214966,1479.740723 2025.031128,1467.155640 2011.102051,1459.812134 
	C2005.806152,1457.020020 2000.252808,1454.717896 1994.834839,1452.154541 
	C1992.129272,1450.874390 1989.270996,1449.792847 1986.818970,1448.125610 
	C1981.145264,1444.267944 1981.150391,1438.421265 1987.373535,1435.798950 
	C1991.762207,1433.949585 1997.029053,1433.706543 2001.915527,1433.642700 
	C2007.358521,1433.571289 2011.459595,1436.208496 2012.842407,1442.002808 
	C2013.215698,1443.566406 2013.939209,1445.046631 2014.961426,1447.805054 
	C2022.176636,1447.200928 2029.365356,1446.599121 2037.983887,1445.173096 
M1448.586670,1493.556396 
	C1443.686279,1500.400513 1436.922852,1505.946411 1433.144897,1514.758423 
	C1448.086182,1516.352051 1462.014893,1518.528076 1470.134644,1502.552612 
	C1471.168091,1500.519409 1472.800415,1498.664795 1474.523071,1497.143799 
	C1476.200195,1495.662598 1478.319824,1493.753662 1480.296265,1493.692749 
	C1491.813599,1493.339111 1503.390991,1492.468628 1515.476196,1494.326172 
	C1515.909546,1501.447510 1516.302002,1507.896606 1516.715698,1514.695068 
	C1525.130493,1514.695068 1532.550171,1514.695068 1539.729126,1514.695068 
	C1542.397949,1504.710083 1543.373779,1420.115845 1540.715088,1412.829956 
	C1535.187622,1412.829956 1529.236572,1413.082886 1523.316895,1412.760864 
	C1517.065186,1412.420654 1512.849854,1414.864624 1508.905640,1419.766846 
	C1489.289062,1444.147949 1469.322266,1468.247437 1448.586670,1493.556396 
M951.086975,1412.824829 
	C946.099976,1412.830078 941.101074,1413.053955 936.128906,1412.785034 
	C929.948730,1412.450562 926.472717,1415.065063 924.105530,1420.849854 
	C912.650208,1448.842529 900.835449,1476.688110 889.223694,1504.617065 
	C888.008545,1507.539795 887.290955,1510.669312 885.912964,1515.076782 
	C893.447021,1515.245972 899.647766,1515.303711 905.841003,1515.550781 
	C910.564514,1515.739258 913.131836,1513.347168 914.766968,1509.162720 
	C917.790955,1501.424683 921.243774,1493.849609 924.116943,1486.058838 
	C926.013428,1480.916626 929.226929,1478.962402 934.647705,1478.980347 
	C943.280090,1479.008911 951.943054,1478.725708 960.542358,1477.985107 
	C980.244263,1476.288208 994.334290,1466.157471 1001.602722,1447.861694 
	C1007.332031,1433.440063 1005.822388,1415.625366 981.929321,1413.608032 
	C972.347778,1412.799194 962.676331,1413.055786 951.086975,1412.824829 
M1202.889404,1412.828491 
	C1194.908081,1412.832397 1186.907593,1413.181885 1178.951294,1412.737915 
	C1171.784546,1412.338135 1168.296387,1415.494507 1165.671875,1421.972412 
	C1154.686401,1449.086304 1143.186890,1475.991699 1131.947876,1503.003418 
	C1130.482910,1506.524414 1129.437256,1510.219971 1127.613770,1515.535767 
	C1135.285278,1515.535767 1141.177124,1515.359253 1147.052979,1515.589478 
	C1152.092773,1515.786743 1155.131104,1513.683472 1156.914429,1509.010498 
	C1159.521851,1502.179077 1162.424316,1495.459961 1165.211792,1488.697632 
	C1169.140015,1479.167969 1169.163940,1479.535400 1179.856934,1478.963501 
	C1191.102295,1478.362061 1202.564575,1478.114258 1213.467163,1475.652344 
	C1230.776245,1471.744019 1244.888306,1454.372681 1246.012817,1438.031860 
	C1246.971069,1424.107788 1241.432251,1416.422363 1227.687866,1414.207153 
	C1220.192017,1412.999023 1212.462158,1413.241821 1202.889404,1412.828491 
z"/>
<path fill="#EC227B" opacity="1.000000" stroke="none" 
	d="
M2733.303467,1571.399902 
	C2728.356934,1570.294434 2724.270996,1568.213867 2720.285889,1568.391479 
	C2702.765381,1569.172485 2685.817871,1566.457886 2668.924805,1562.123901 
	C2654.379150,1558.392212 2643.377441,1549.700439 2633.738281,1538.877319 
	C2625.387451,1529.500854 2620.252686,1518.661011 2617.879150,1506.112183 
	C2615.461182,1493.328369 2613.305664,1480.727783 2613.323975,1467.588867 
	C2613.536133,1316.597900 2613.459229,1165.606445 2613.459229,1014.615112 
	C2613.459229,1010.038025 2613.459229,1005.460999 2613.459229,1000.189453 
	C2573.613037,1000.189453 2535.133301,1000.189453 2495.627441,1000.189453 
	C2493.909424,1020.632202 2495.109375,1040.853638 2494.885498,1061.024902 
	C2494.659912,1081.354492 2494.834229,1101.688599 2494.833984,1122.020752 
	C2494.833496,1142.019653 2494.833252,1162.018433 2494.833740,1182.017334 
	C2494.834229,1202.349487 2494.837158,1222.681641 2494.837646,1243.013794 
	C2494.838379,1263.292847 2494.837646,1283.572021 2494.837646,1303.540161 
	C2486.440186,1305.980957 1098.503296,1306.323242 1087.985596,1304.031982 
	C1087.985596,1008.427734 1087.985596,712.674133 1087.985596,417.105042 
	C1096.120850,414.968506 2481.537354,414.469269 2494.119873,416.607483 
	C2494.348145,420.515350 2494.803955,424.694916 2494.805664,428.874634 
	C2494.845459,521.202637 2494.834961,613.530701 2494.833984,705.858704 
	C2494.833984,710.117432 2494.833984,714.376221 2494.833984,719.479309 
	C2499.218018,719.778931 2502.420898,720.188721 2505.623779,720.189331 
	C2667.281250,720.220154 2828.938477,720.232117 2990.595947,720.118103 
	C2994.424316,720.115356 2998.251709,718.657532 3002.832275,717.509644 
	C3007.234863,717.317566 3010.884766,717.642944 3014.534912,717.647339 
	C3047.532959,717.687073 3080.537598,718.051392 3113.526367,717.501038 
	C3128.744141,717.247192 3143.275146,720.688049 3157.356445,724.932434 
	C3170.703125,728.955444 3181.255615,738.602051 3190.434570,749.383179 
	C3199.334717,759.837585 3202.694824,772.242798 3205.776367,785.275391 
	C3209.409424,800.641602 3210.572998,815.961304 3210.197754,831.605408 
	C3209.902344,843.930969 3210.183594,856.269409 3210.128174,868.601807 
	C3210.044678,887.159729 3209.890625,905.717407 3209.762939,924.826538 
	C3227.508789,929.467163 3239.563721,942.255737 3248.929688,957.936890 
	C3252.108154,963.257874 3254.212891,969.264099 3256.453369,975.093506 
	C3264.723145,996.608704 3272.766357,1018.210938 3281.043945,1039.723145 
	C3289.083496,1060.616211 3297.248291,1081.461914 3305.504883,1102.270142 
	C3306.918945,1105.833252 3309.069092,1109.104126 3310.904541,1112.557739 
	C3322.369629,1083.996582 3333.820312,1055.795776 3345.006836,1027.490601 
	C3352.414307,1008.746399 3359.384521,989.829834 3366.659912,971.032837 
	C3373.037598,954.554077 3382.925537,940.845764 3397.813477,930.816467 
	C3402.399414,927.726868 3407.295410,926.493408 3412.404785,925.273254 
	C3420.083496,923.439514 3427.734131,921.488159 3437.179932,919.691406 
	C3466.563232,919.868591 3494.163330,920.008301 3521.763428,919.991150 
	C3541.710693,919.978760 3561.657715,919.758179 3581.604980,919.630371 
	C3591.580078,921.958923 3602.184082,922.894897 3611.342529,927.031677 
	C3619.501709,930.717102 3626.612793,937.377197 3633.177246,943.762024 
	C3640.264893,950.655579 3645.927979,958.797485 3647.576416,969.148254 
	C3648.764648,976.608521 3651.667969,983.890015 3652.120605,991.353516 
	C3653.064697,1006.919922 3646.804199,1021.220276 3641.698242,1035.428711 
	C3635.904541,1051.551514 3628.450684,1067.077148 3621.736816,1082.870117 
	C3611.820557,1106.195557 3601.835693,1129.492554 3592.034668,1152.866333 
	C3579.768799,1182.118530 3567.757812,1211.477905 3555.449707,1240.712280 
	C3545.822266,1263.580200 3535.716797,1286.247803 3526.181396,1309.153442 
	C3517.826660,1329.222778 3510.166016,1349.580933 3501.833008,1369.659668 
	C3494.488525,1387.355347 3486.593506,1404.821655 3479.032471,1422.428345 
	C3475.667725,1430.264160 3472.543457,1438.202759 3469.281494,1446.083008 
	C3459.956055,1468.612305 3451.463623,1491.539185 3440.992188,1513.523193 
	C3433.682129,1528.870850 3422.493408,1542.033081 3406.727051,1549.745117 
	C3400.322266,1552.878174 3392.971436,1554.455933 3385.868408,1555.684937 
	C3377.408447,1557.148560 3368.757568,1558.111816 3360.180176,1558.185059 
	C3327.523193,1558.464233 3294.860840,1558.471069 3262.203369,1558.218384 
	C3247.608154,1558.105591 3232.938721,1556.463623 3219.367920,1551.123901 
	C3211.254395,1547.931152 3203.026367,1542.926392 3197.189453,1536.583252 
	C3189.919922,1528.683716 3183.927979,1519.090942 3179.388916,1509.299927 
	C3168.547119,1485.914307 3158.827881,1462.006226 3148.754395,1438.267090 
	C3135.577393,1407.213501 3122.583740,1376.081909 3109.350342,1345.052490 
	C3092.355225,1305.202637 3075.088135,1265.468506 3058.151611,1225.593750 
	C3045.720459,1196.325684 3033.812988,1166.835205 3021.341064,1137.584961 
	C3009.015869,1108.678589 2995.987793,1080.069702 2983.831787,1051.093628 
	C2977.335938,1035.609375 2972.029053,1019.626160 2965.801514,1002.832642 
	C2962.984619,1002.832642 2958.426270,1002.832642 2952.652344,1002.832642 
	C2952.546875,1006.754150 2952.351807,1010.623047 2952.351318,1014.491943 
	C2952.336182,1159.459961 2952.338623,1304.427856 2952.338623,1449.395874 
	C2952.338623,1458.727173 2951.814209,1468.094849 2952.458252,1477.381470 
	C2953.490723,1492.262939 2949.565674,1506.335693 2945.495117,1520.172363 
	C2941.897949,1532.399780 2933.559814,1542.200928 2923.786133,1550.442749 
	C2919.495117,1554.061279 2914.876221,1557.302002 2910.303711,1560.570679 
	C2908.705811,1561.712891 2906.895264,1562.839355 2905.020508,1563.268677 
	C2886.629883,1567.478516 2868.447510,1572.063721 2849.179199,1571.698730 
	C2810.868408,1570.973022 2772.534668,1571.471558 2733.303467,1571.399902 
M1721.873291,675.202454 
	C1688.106201,602.738403 1630.981323,558.511414 1554.830933,537.632935 
	C1512.335571,525.981934 1468.849365,523.016663 1425.035278,525.443665 
	C1384.892090,527.667358 1345.615601,534.655212 1308.388672,550.625610 
	C1251.649536,574.966858 1208.925659,614.277344 1181.850220,670.032776 
	C1161.056030,712.853516 1153.417847,758.620117 1152.820801,805.729980 
	C1152.352173,842.716309 1152.786133,879.713257 1152.700073,916.705261 
	C1152.635376,944.479553 1155.749878,971.909363 1161.898193,998.946777 
	C1171.369019,1040.595947 1189.151978,1078.226440 1217.525269,1110.468384 
	C1263.703369,1162.943237 1323.516479,1188.456299 1391.368164,1197.649292 
	C1430.516846,1202.953491 1469.757690,1202.886475 1508.937378,1197.755615 
	C1545.224854,1193.003418 1580.180908,1183.584473 1612.641357,1166.294067 
	C1673.293091,1133.986938 1713.481079,1084.739258 1733.893188,1019.165588 
	C1743.885742,987.065063 1747.630615,954.089844 1748.392212,920.663391 
	C1748.441040,918.517822 1747.504761,916.349792 1747.081421,914.439514 
	C1732.349609,912.546326 1585.057373,913.211182 1577.061035,915.326050 
	C1576.646118,919.589172 1576.004150,924.155518 1575.790527,928.741882 
	C1574.963257,946.505676 1571.874634,963.824951 1565.578247,980.479004 
	C1552.577271,1014.867004 1529.616089,1039.250122 1494.124146,1050.767090 
	C1476.763428,1056.400513 1458.824463,1057.771973 1440.758301,1056.498291 
	C1398.341675,1053.508057 1364.781250,1035.409302 1343.506714,997.576660 
	C1331.152954,975.607849 1325.910889,951.411072 1325.394165,926.558777 
	C1324.556030,886.251587 1324.827271,845.915894 1325.051392,805.594604 
	C1325.151733,787.538147 1327.831299,769.708679 1333.398682,752.463196 
	C1345.509399,714.949829 1368.890625,688.029724 1407.073486,675.531982 
	C1426.713257,669.103577 1447.025146,668.278198 1467.406860,670.262512 
	C1511.156128,674.521851 1542.863159,696.383545 1561.635742,736.278503 
	C1570.391357,754.885925 1574.379272,774.744629 1575.716675,795.225281 
	C1576.095825,801.030884 1574.727905,807.271606 1578.426025,812.465759 
	C1594.052002,814.296326 1740.057617,813.606140 1748.144531,811.465759 
	C1748.521606,764.914673 1741.521240,719.639893 1721.873291,675.202454 
M1883.946289,1103.026855 
	C1917.706787,1144.322144 1960.743408,1171.361084 2011.672852,1186.396851 
	C2044.844727,1196.190063 2078.796631,1200.509644 2113.259766,1201.115356 
	C2160.919189,1201.953003 2207.788818,1197.068237 2252.814697,1180.276855 
	C2326.595459,1152.761963 2377.091064,1102.098633 2403.409180,1027.759399 
	C2407.256104,1016.893616 2409.762939,1005.553406 2412.486816,995.865417 
	C2402.624023,989.578430 2393.712158,984.992188 2386.117432,978.792603 
	C2375.459473,970.092468 2367.130371,959.331909 2363.908447,945.396240 
	C2361.522705,935.077393 2358.956787,924.800293 2356.468994,914.495972 
	C2320.468994,914.495972 2285.312256,914.495972 2249.402588,914.495972 
	C2249.066162,918.358948 2248.923584,921.626953 2248.476318,924.852661 
	C2246.468262,939.333862 2245.800537,954.186096 2242.040039,968.204407 
	C2231.041260,1009.201599 2206.611084,1038.767822 2164.903809,1051.416504 
	C2139.847412,1059.015381 2114.341064,1058.969849 2088.831299,1052.910767 
	C2054.972656,1044.868652 2030.259644,1025.130371 2014.200317,994.499084 
	C2003.161011,973.442932 1998.130737,950.603333 1997.764771,927.095337 
	C1997.106079,884.783936 1997.206177,842.450928 1997.702515,800.135315 
	C1997.942017,779.709473 2001.931519,759.744995 2009.933960,740.765808 
	C2023.032959,709.698914 2044.727661,687.503113 2076.861084,676.194092 
	C2098.408691,668.610657 2120.754150,667.901245 2143.053223,670.399658 
	C2181.306396,674.685547 2210.669678,693.352600 2229.765625,727.217957 
	C2242.328857,749.497498 2247.473389,773.737183 2248.449707,799.056824 
	C2248.612305,803.270935 2249.095459,807.472534 2249.474121,812.228088 
	C2285.603760,812.228088 2320.752197,812.228088 2355.597168,812.228088 
	C2358.523438,798.913818 2361.250244,786.287476 2364.103271,773.689758 
	C2364.761475,770.784546 2365.379883,767.708496 2366.823242,765.169495 
	C2375.752441,749.459473 2388.203125,737.260254 2404.182617,728.739746 
	C2406.147217,727.692261 2408.206055,726.822021 2410.688721,725.648804 
	C2410.011230,721.988586 2409.674316,718.690735 2408.779785,715.551697 
	C2386.572510,637.596802 2338.647949,582.119080 2263.884277,550.261597 
	C2233.250000,537.208008 2201.032715,530.456482 2168.025635,527.246826 
	C2111.351318,521.735901 2055.429199,525.260376 2001.091675,543.282471 
	C1943.675537,562.325684 1897.987061,596.948181 1866.120972,648.740356 
	C1839.986206,691.217346 1828.198853,738.262512 1826.395630,787.529053 
	C1824.824219,830.465637 1825.804321,873.495483 1825.647705,916.484131 
	C1825.555176,941.886169 1828.055542,966.983398 1833.172852,991.909058 
	C1841.489014,1032.416260 1857.430176,1069.328979 1883.946289,1103.026855 
M2694.620850,1070.999878 
	C2694.677246,1208.297119 2694.733154,1345.594482 2694.810303,1482.891724 
	C2694.810547,1483.534790 2695.079834,1484.186768 2695.281250,1484.816406 
	C2695.377197,1485.116699 2695.583740,1485.393921 2695.785645,1485.645020 
	C2695.993164,1485.902832 2696.255859,1486.116211 2697.606445,1487.434448 
	C2710.728760,1487.434448 2724.996338,1487.434448 2739.263672,1487.434448 
	C2753.593506,1487.434448 2767.923340,1487.434448 2782.253174,1487.434448 
	C2796.916260,1487.434448 2811.580322,1487.556763 2826.241699,1487.399292 
	C2840.385254,1487.247559 2854.588379,1488.116333 2869.461914,1486.783569 
	C2869.461914,1461.780273 2869.461914,1438.155518 2869.461914,1414.530884 
	C2869.461914,1390.869995 2869.461914,1367.209229 2869.461914,1343.548340 
	C2869.461914,1319.887573 2869.461914,1296.226685 2869.461914,1272.565918 
	C2869.461914,1249.238281 2869.461914,1225.910767 2869.461914,1202.583130 
	C2869.461914,1178.922241 2869.461914,1155.261475 2869.461914,1131.600586 
	C2869.461914,1107.939697 2869.461914,1084.278931 2869.461914,1060.618042 
	C2869.461914,1036.957153 2869.389160,1013.296021 2869.482666,989.635559 
	C2869.575439,966.148071 2869.056885,942.640625 2869.860107,918.060242 
	C2955.468262,918.060242 3039.624756,918.060242 3123.458740,918.060242 
	C3125.991699,908.727539 3126.026611,811.028809 3123.811035,802.689209 
	C3113.077637,800.631958 2446.885742,801.132202 2439.688721,803.202881 
	C2437.309814,815.550842 2438.030029,910.529053 2440.956543,918.377686 
	C2524.721191,918.377686 2608.895264,918.377686 2692.745850,918.377686 
	C2693.595215,920.278259 2694.333740,921.161499 2694.336182,922.046631 
	C2694.470215,971.030945 2694.542725,1020.015320 2694.620850,1070.999878 
M3138.229248,1224.804321 
	C3148.004395,1247.796631 3157.779053,1270.789062 3167.554443,1293.781494 
	C3193.232910,1354.178833 3218.994873,1414.541016 3244.473145,1475.022705 
	C3247.299072,1481.731567 3250.823975,1484.659058 3258.476807,1484.572021 
	C3293.794434,1484.170898 3329.119873,1484.273804 3364.440430,1484.507446 
	C3370.603516,1484.548218 3374.109863,1482.729004 3376.502930,1476.786621 
	C3385.337158,1454.850464 3394.641846,1433.103638 3403.790771,1411.294434 
	C3432.143555,1343.707764 3460.503906,1276.124268 3488.865479,1208.541382 
	C3517.871094,1139.424561 3546.888428,1070.312866 3575.858643,1001.181396 
	C3576.825928,998.872864 3577.338135,996.373596 3578.374023,992.925659 
	C3574.135254,992.693848 3570.920654,992.367798 3567.705566,992.364990 
	C3528.051514,992.329956 3488.397217,992.331970 3448.743164,992.348633 
	C3437.653809,992.353333 3437.634766,992.382263 3433.625732,1002.602905 
	C3418.661865,1040.748291 3403.661621,1078.879395 3388.768311,1117.052246 
	C3363.469482,1181.895264 3335.987061,1245.917114 3315.200439,1312.461670 
	C3314.174561,1315.745972 3312.541016,1318.840576 3311.190674,1322.023438 
	C3307.941650,1318.932373 3306.641846,1316.036133 3305.566650,1313.058960 
	C3291.200928,1273.278564 3277.434326,1233.270752 3262.394775,1193.747314 
	C3237.752441,1128.986328 3212.234375,1064.558838 3187.266602,999.920593 
	C3185.147217,994.433289 3182.254395,992.204224 3176.245361,992.234375 
	C3133.260010,992.450134 3090.272949,992.335449 3047.286621,992.405518 
	C3045.158203,992.408997 3043.030518,993.154175 3039.812988,993.758667 
	C3072.668457,1070.921631 3105.134521,1147.169556 3138.229248,1224.804321 
z"/>
<path fill="#F7071E" opacity="1.000000" stroke="none" 
	d="
M3580.986816,919.130981 
	C3561.657715,919.758179 3541.710693,919.978760 3521.763428,919.991150 
	C3494.163330,920.008301 3466.563232,919.868591 3437.957275,919.657227 
	C3439.774414,918.897705 3442.595703,917.744019 3445.420410,917.736328 
	C3487.793213,917.620850 3530.166016,917.639343 3572.539062,917.698486 
	C3575.149414,917.702148 3577.758789,918.306641 3580.986816,919.130981 
z"/>
<path fill="#F7FCFD" opacity="1.000000" stroke="none" 
	d="
M2337.690918,1469.496094 
	C2330.258301,1480.436646 2322.845459,1491.390869 2315.387939,1502.314575 
	C2305.630615,1516.606934 2304.904541,1516.954468 2287.580566,1515.436646 
	C2285.994629,1515.297729 2284.455078,1514.627930 2281.483154,1513.821899 
	C2283.768066,1496.707764 2286.034912,1479.728149 2288.301758,1462.748657 
	C2287.701904,1462.566895 2287.101807,1462.385010 2286.501953,1462.203247 
	C2285.339844,1464.366333 2283.976807,1466.446899 2283.048828,1468.706055 
	C2277.734863,1481.640137 2272.296875,1494.531128 2267.382324,1507.617554 
	C2265.176270,1513.492798 2261.800049,1516.229980 2255.490234,1515.605347 
	C2250.683594,1515.129395 2245.831787,1515.110962 2240.013184,1514.843628 
	C2241.273682,1510.728027 2241.886719,1507.864624 2243.003418,1505.213257 
	C2254.506592,1477.906006 2266.335205,1450.732178 2277.502197,1423.288940 
	C2280.780762,1415.232300 2285.500244,1411.971436 2294.075195,1412.698242 
	C2301.282227,1413.309082 2308.581787,1412.823730 2317.286621,1412.823730 
	C2316.642334,1432.211304 2312.738770,1449.938110 2310.381104,1470.036987 
	C2313.351562,1466.846802 2315.195801,1465.264648 2316.557129,1463.340698 
	C2326.752197,1448.933350 2337.079346,1434.609863 2346.862793,1419.925415 
	C2350.456055,1414.531982 2354.633545,1412.205322 2360.941162,1412.786865 
	C2369.386719,1413.565430 2378.057861,1411.439697 2387.482422,1414.546997 
	C2385.739014,1419.350586 2384.273438,1423.654785 2382.624512,1427.887207 
	C2372.472168,1453.946167 2362.291260,1479.993896 2352.092041,1506.034546 
	C2348.400146,1515.460693 2348.365723,1515.461304 2338.351074,1515.557739 
	C2334.112793,1515.598389 2329.874023,1515.564575 2323.770020,1515.564575 
	C2329.354004,1500.356689 2333.961914,1486.733398 2341.274902,1472.766113 
	C2343.827148,1467.729492 2345.572998,1463.731567 2347.318604,1459.733643 
	C2346.469971,1459.279419 2345.621094,1458.825073 2344.772217,1458.370728 
	C2342.411865,1462.079224 2340.051270,1465.787720 2337.690918,1469.496094 
z"/>
<path fill="#F6FCFD" opacity="1.000000" stroke="none" 
	d="
M1364.484741,1515.561768 
	C1354.782715,1514.882202 1354.776123,1514.884033 1352.639648,1507.313110 
	C1350.561157,1499.946777 1348.824097,1492.463989 1346.339722,1485.237671 
	C1343.649902,1477.413452 1340.148438,1475.514771 1332.183960,1475.152710 
	C1326.710938,1474.903931 1323.479858,1477.056519 1321.510620,1482.088745 
	C1318.236572,1490.455811 1314.388916,1498.603760 1311.271973,1507.025146 
	C1308.985474,1513.203125 1305.259155,1516.197632 1298.543091,1515.609009 
	C1293.368530,1515.155518 1288.150635,1515.197021 1282.052246,1514.987549 
	C1282.796753,1511.650146 1282.970459,1509.379761 1283.799194,1507.380737 
	C1295.908325,1478.168945 1308.173828,1449.021851 1320.214355,1419.781860 
	C1322.285645,1414.751831 1325.412720,1412.678345 1330.836304,1412.763672 
	C1345.815796,1412.999512 1360.801880,1412.785767 1375.782959,1412.959839 
	C1379.754883,1413.005981 1383.774170,1413.530762 1387.674927,1414.315796 
	C1400.371460,1416.870728 1406.741943,1426.266724 1404.883545,1439.211792 
	C1402.678955,1454.568848 1393.691528,1464.380737 1379.704224,1470.084473 
	C1376.682983,1471.316162 1373.543213,1472.256714 1369.658203,1473.610229 
	C1374.452637,1487.088745 1380.331787,1499.725220 1381.824097,1514.873779 
	C1375.720825,1515.130005 1370.547241,1515.347168 1364.484741,1515.561768 
M1335.300049,1448.734375 
	C1335.034668,1450.854736 1334.769409,1452.975220 1334.306641,1456.674194 
	C1344.181885,1456.095825 1353.116577,1456.275391 1361.761230,1454.779053 
	C1366.296875,1453.993896 1370.840576,1450.844727 1374.380859,1447.653931 
	C1376.402710,1445.831787 1377.806030,1441.265747 1376.924316,1438.884155 
	C1376.114990,1436.697998 1371.958984,1434.764648 1369.117065,1434.510254 
	C1361.887451,1433.863525 1354.567627,1434.260010 1347.285034,1434.154419 
	C1343.565186,1434.100464 1340.926025,1435.612915 1339.426270,1439.036621 
	C1338.231079,1441.764648 1337.050293,1444.499023 1335.300049,1448.734375 
z"/>
<path fill="#F6FCFD" opacity="1.000000" stroke="none" 
	d="
M1668.788696,1423.044312 
	C1665.715820,1430.662476 1662.963989,1437.605591 1660.212158,1444.548828 
	C1660.839111,1445.044189 1661.465942,1445.539551 1662.092896,1446.034790 
	C1664.737915,1444.349976 1667.467163,1442.782715 1670.013184,1440.959839 
	C1680.564331,1433.405151 1691.142578,1425.883911 1701.540283,1418.121948 
	C1706.566040,1414.370483 1711.875732,1412.482300 1718.204468,1412.741455 
	C1725.740356,1413.050049 1733.298462,1412.814087 1741.250610,1412.814087 
	C1741.084595,1418.325073 1737.459473,1419.353882 1734.995728,1421.085449 
	C1721.385498,1430.652954 1707.625977,1440.008057 1694.005981,1449.562134 
	C1687.139893,1454.378662 1687.065552,1454.798584 1690.200195,1462.686768 
	C1695.114868,1475.053955 1700.194702,1487.355469 1705.115845,1499.720093 
	C1706.827148,1504.019653 1708.274780,1508.424316 1710.300293,1514.052124 
	C1700.958496,1516.692871 1692.130737,1515.923340 1683.511841,1514.737305 
	C1681.516602,1514.462646 1679.476318,1510.621826 1678.430786,1508.029297 
	C1674.450317,1498.159058 1670.904785,1488.114136 1667.107544,1478.168579 
	C1666.314819,1476.092407 1665.141235,1474.161865 1663.580444,1471.038086 
	C1653.814209,1477.612915 1642.971680,1481.372681 1639.222168,1493.696655 
	C1637.488647,1499.395020 1634.896973,1504.886108 1632.167725,1510.200806 
	C1631.094482,1512.291016 1628.690308,1514.933350 1626.706909,1515.098389 
	C1619.592163,1515.690308 1612.398438,1515.330444 1603.831909,1515.330444 
	C1605.125854,1510.885498 1605.667969,1508.042480 1606.758545,1505.428467 
	C1617.777100,1479.020508 1628.778442,1452.604614 1640.007446,1426.286133 
	C1647.002563,1409.891235 1645.128906,1413.232056 1660.216797,1412.828491 
	C1662.540771,1412.766357 1664.877441,1412.864258 1667.195435,1413.049316 
	C1668.151245,1413.125610 1669.073120,1413.627686 1671.248535,1414.343384 
	C1670.533447,1417.026855 1669.821533,1419.698120 1668.788696,1423.044312 
z"/>
<path fill="#F6FCFD" opacity="1.000000" stroke="none" 
	d="
M745.070251,1477.037354 
	C760.702393,1457.967529 776.073181,1439.601562 790.963745,1420.854126 
	C795.524536,1415.112061 800.399475,1411.973755 807.856140,1412.736206 
	C813.366943,1413.299683 818.950500,1413.151611 825.663025,1413.355835 
	C825.677551,1447.601807 825.885376,1480.673218 823.941711,1515.170044 
	C816.632568,1515.238037 810.137207,1515.433960 803.648071,1515.307617 
	C799.804932,1515.232910 798.760864,1512.480713 798.768921,1509.113037 
	C798.779846,1504.524292 798.771667,1499.935425 798.771667,1494.343506 
	C794.248535,1493.945923 790.735229,1493.523193 787.209961,1493.360229 
	C783.890442,1493.206665 780.558167,1493.311523 777.231628,1493.328979 
	C757.479309,1493.432617 761.348389,1491.755249 750.735229,1505.822998 
	C745.171448,1513.197754 738.847046,1516.828613 729.606567,1515.646729 
	C725.730164,1515.151123 721.737549,1515.564331 717.764282,1515.564331 
	C716.225891,1510.687378 719.362488,1508.575439 721.277954,1506.184448 
	C728.970276,1496.582520 736.827759,1487.112915 745.070251,1477.037354 
M799.608459,1448.202148 
	C798.436646,1448.375366 796.772400,1448.110962 796.169312,1448.789551 
	C790.221558,1455.482666 783.928162,1461.982178 779.053528,1472.090942 
	C785.391235,1472.090942 789.564697,1472.058228 793.737427,1472.099731 
	C798.340698,1472.145508 800.209961,1469.707275 800.180542,1465.328003 
	C800.145142,1460.068359 800.203613,1454.807983 799.608459,1448.202148 
z"/>
<path fill="#F6FCFD" opacity="1.000000" stroke="none" 
	d="
M2135.286133,1433.241455 
	C2137.616943,1430.356567 2139.907227,1428.250854 2141.313477,1425.664551 
	C2150.053223,1409.589600 2164.144287,1411.731201 2179.760498,1414.143066 
	C2179.871338,1447.540527 2179.998047,1480.597534 2178.229980,1513.764526 
	C2169.663818,1516.834839 2161.980957,1515.427979 2153.524170,1514.828491 
	C2153.524170,1507.784668 2153.524170,1501.619263 2153.524170,1494.077881 
	C2147.698486,1493.805298 2142.501221,1493.947021 2137.417969,1493.252075 
	C2121.960205,1491.139038 2109.372070,1494.781494 2101.574951,1509.531494 
	C2098.972168,1514.455200 2094.457764,1516.026123 2088.942871,1515.626221 
	C2083.134766,1515.204834 2077.292725,1515.250732 2069.209229,1515.031372 
	C2080.276855,1499.085327 2091.897949,1486.463135 2102.542969,1473.115845 
	C2113.116943,1459.857788 2124.057617,1446.892456 2135.286133,1433.241455 
M2154.422607,1459.299561 
	C2154.422607,1455.479492 2154.422607,1451.659546 2154.422607,1447.839478 
	C2153.619629,1447.594604 2152.816650,1447.349731 2152.013428,1447.104858 
	C2145.311035,1454.181885 2138.602051,1461.253906 2134.016113,1470.708008 
	C2151.695312,1474.195435 2153.710205,1473.149292 2154.422607,1459.299561 
z"/>
<path fill="#F7FCFD" opacity="1.000000" stroke="none" 
	d="
M1817.620117,1437.591919 
	C1823.135742,1430.873901 1828.299072,1424.781738 1833.173218,1418.466309 
	C1836.284546,1414.435181 1840.017822,1412.553345 1845.156250,1412.772095 
	C1851.388672,1413.037354 1857.641113,1412.835083 1863.421753,1412.835083 
	C1866.676880,1422.590698 1865.999634,1503.370728 1862.801147,1514.786377 
	C1855.566162,1514.786377 1848.106934,1514.786377 1839.593506,1514.786377 
	C1839.139404,1507.993042 1838.708740,1501.551392 1838.208618,1494.069580 
	C1826.164795,1492.735352 1814.625488,1493.183960 1803.114380,1493.784058 
	C1801.386841,1493.874023 1799.572266,1495.463013 1798.116943,1496.726074 
	C1796.633179,1498.013916 1795.223022,1499.590454 1794.330811,1501.323730 
	C1786.205444,1517.111206 1772.565552,1517.319214 1756.101807,1514.387695 
	C1758.177368,1511.163696 1759.605225,1508.401978 1761.528076,1506.043823 
	C1780.019653,1483.364868 1798.594482,1460.753784 1817.620117,1437.591919 
M1833.110107,1452.068970 
	C1828.799683,1458.025391 1822.686157,1462.818115 1820.100586,1472.000244 
	C1825.878906,1472.000244 1830.681152,1472.178467 1835.454956,1471.888550 
	C1836.835327,1471.804565 1839.154785,1470.532471 1839.307373,1469.538452 
	C1840.460571,1462.030029 1842.897339,1454.447876 1839.820923,1445.776367 
	C1837.348877,1447.990112 1835.688965,1449.476562 1833.110107,1452.068970 
z"/>
<path fill="#F6FCFD" opacity="1.000000" stroke="none" 
	d="
M2037.268921,1445.585205 
	C2029.365356,1446.599121 2022.176636,1447.200928 2014.961426,1447.805054 
	C2013.939209,1445.046631 2013.215698,1443.566406 2012.842407,1442.002808 
	C2011.459595,1436.208496 2007.358521,1433.571289 2001.915527,1433.642700 
	C1997.029053,1433.706543 1991.762207,1433.949585 1987.373535,1435.798950 
	C1981.150391,1438.421265 1981.145264,1444.267944 1986.818970,1448.125610 
	C1989.270996,1449.792847 1992.129272,1450.874390 1994.834839,1452.154541 
	C2000.252808,1454.717896 2005.806152,1457.020020 2011.102051,1459.812134 
	C2025.031128,1467.155640 2029.214966,1479.740723 2021.065918,1493.131958 
	C2017.401733,1499.153442 2011.969116,1504.982300 2005.942017,1508.517456 
	C1987.573608,1519.292114 1967.893921,1519.651489 1948.206055,1512.078979 
	C1938.189819,1508.226318 1933.716675,1500.500244 1934.277344,1490.162964 
	C1934.619995,1483.845459 1935.661011,1482.558960 1941.830811,1482.038452 
	C1947.411865,1481.567627 1953.023804,1481.464844 1959.016235,1481.181030 
	C1959.761841,1483.953735 1959.934570,1486.357178 1961.031982,1488.214355 
	C1962.298462,1490.357788 1964.041260,1492.953369 1966.168091,1493.725830 
	C1974.643677,1496.804077 1983.344360,1496.587036 1991.309448,1492.219727 
	C1993.859985,1490.821289 1996.712646,1487.319946 1996.742920,1484.749268 
	C1996.771484,1482.329834 1993.741577,1479.015381 1991.214111,1477.596069 
	C1985.139648,1474.184814 1978.481445,1471.834961 1972.218628,1468.733765 
	C1952.804077,1459.119995 1950.100952,1437.752319 1966.608887,1423.477295 
	C1970.079346,1420.476318 1974.190430,1417.929443 1978.415894,1416.140869 
	C1991.799194,1410.476074 2005.761475,1410.325317 2019.556641,1414.074951 
	C2032.494751,1417.591797 2040.199829,1428.349243 2039.571655,1440.590332 
	C2039.492065,1442.140991 2038.534668,1443.646606 2037.268921,1445.585205 
z"/>
<path fill="#F7FCFD" opacity="1.000000" stroke="none" 
	d="
M1449.032715,1493.001221 
	C1469.322266,1468.247437 1489.289062,1444.147949 1508.905640,1419.766846 
	C1512.849854,1414.864624 1517.065186,1412.420654 1523.316895,1412.760864 
	C1529.236572,1413.082886 1535.187622,1412.829956 1540.715088,1412.829956 
	C1543.373779,1420.115845 1542.397949,1504.710083 1539.729126,1514.695068 
	C1532.550171,1514.695068 1525.130493,1514.695068 1516.715698,1514.695068 
	C1516.302002,1507.896606 1515.909546,1501.447510 1515.476196,1494.326172 
	C1503.390991,1492.468628 1491.813599,1493.339111 1480.296265,1493.692749 
	C1478.319824,1493.753662 1476.200195,1495.662598 1474.523071,1497.143799 
	C1472.800415,1498.664795 1471.168091,1500.519409 1470.134644,1502.552612 
	C1462.014893,1518.528076 1448.086182,1516.352051 1433.144897,1514.758423 
	C1436.922852,1505.946411 1443.686279,1500.400513 1449.032715,1493.001221 
M1507.795898,1454.730713 
	C1504.110718,1459.915283 1498.781250,1464.068848 1496.277710,1472.043335 
	C1502.492310,1472.043335 1507.376831,1472.402832 1512.158203,1471.857544 
	C1513.944214,1471.653931 1516.752686,1469.485840 1516.928345,1467.963379 
	C1517.731812,1461.001099 1519.066895,1453.863281 1515.837646,1445.553101 
	C1512.904175,1448.815430 1510.767456,1451.191650 1507.795898,1454.730713 
z"/>
<path fill="#F7FCFD" opacity="1.000000" stroke="none" 
	d="
M952.066406,1412.826172 
	C962.676331,1413.055786 972.347778,1412.799194 981.929321,1413.608032 
	C1005.822388,1415.625366 1007.332031,1433.440063 1001.602722,1447.861694 
	C994.334290,1466.157471 980.244263,1476.288208 960.542358,1477.985107 
	C951.943054,1478.725708 943.280090,1479.008911 934.647705,1478.980347 
	C929.226929,1478.962402 926.013428,1480.916626 924.116943,1486.058838 
	C921.243774,1493.849609 917.790955,1501.424683 914.766968,1509.162720 
	C913.131836,1513.347168 910.564514,1515.739258 905.841003,1515.550781 
	C899.647766,1515.303711 893.447021,1515.245972 885.912964,1515.076782 
	C887.290955,1510.669312 888.008545,1507.539795 889.223694,1504.617065 
	C900.835449,1476.688110 912.650208,1448.842529 924.105530,1420.849854 
	C926.472717,1415.065063 929.948730,1412.450562 936.128906,1412.785034 
	C941.101074,1413.053955 946.099976,1412.830078 952.066406,1412.826172 
M962.608704,1434.088501 
	C958.946411,1434.096069 955.256958,1433.838989 951.632019,1434.210938 
	C949.462952,1434.433472 946.332886,1435.022949 945.467163,1436.512573 
	C941.900757,1442.648804 938.047668,1448.885132 938.410034,1457.332275 
	C949.962097,1457.917114 960.924927,1458.834351 970.463257,1451.690308 
	C974.559814,1448.622314 978.072021,1444.430664 976.405945,1438.934692 
	C974.829346,1433.733765 969.613708,1434.530396 965.378479,1434.156372 
	C965.047241,1434.126953 964.713196,1434.129883 962.608704,1434.088501 
z"/>
<path fill="#F7FCFD" opacity="1.000000" stroke="none" 
	d="
M1203.863647,1412.829346 
	C1212.462158,1413.241821 1220.192017,1412.999023 1227.687866,1414.207153 
	C1241.432251,1416.422363 1246.971069,1424.107788 1246.012817,1438.031860 
	C1244.888306,1454.372681 1230.776245,1471.744019 1213.467163,1475.652344 
	C1202.564575,1478.114258 1191.102295,1478.362061 1179.856934,1478.963501 
	C1169.163940,1479.535400 1169.140015,1479.167969 1165.211792,1488.697632 
	C1162.424316,1495.459961 1159.521851,1502.179077 1156.914429,1509.010498 
	C1155.131104,1513.683472 1152.092773,1515.786743 1147.052979,1515.589478 
	C1141.177124,1515.359253 1135.285278,1515.535767 1127.613770,1515.535767 
	C1129.437256,1510.219971 1130.482910,1506.524414 1131.947876,1503.003418 
	C1143.186890,1475.991699 1154.686401,1449.086304 1165.671875,1421.972412 
	C1168.296387,1415.494507 1171.784546,1412.338135 1178.951294,1412.737915 
	C1186.907593,1413.181885 1194.908081,1412.832397 1203.863647,1412.829346 
M1184.559692,1441.555054 
	C1182.874512,1446.348267 1181.189331,1451.141602 1179.217896,1456.749023 
	C1189.404419,1458.290527 1197.878052,1458.313599 1206.130005,1455.379883 
	C1211.613525,1453.430542 1215.941162,1449.847900 1218.301880,1444.370117 
	C1219.760010,1440.986816 1219.547363,1436.418213 1215.920288,1436.009277 
	C1206.900513,1434.992554 1197.710693,1435.269653 1188.602539,1435.519287 
	C1187.428589,1435.551514 1186.334473,1438.495972 1184.559692,1441.555054 
z"/>
<path fill="#A7E1EE" opacity="1.000000" stroke="none" 
	d="
M2338.272461,1469.965332 
	C2340.051270,1465.787720 2342.411865,1462.079224 2344.772217,1458.370728 
	C2345.621094,1458.825073 2346.469971,1459.279419 2347.318604,1459.733643 
	C2345.572998,1463.731567 2343.827148,1467.729492 2341.570801,1472.094727 
	C2340.325195,1471.786255 2339.589600,1471.110352 2338.272461,1469.965332 
z"/>
<path fill="#FFFDFE" opacity="1.000000" stroke="none" 
	d="
M1722.201416,675.880493 
	C1741.521240,719.639893 1748.521606,764.914673 1748.144531,811.465759 
	C1740.057617,813.606140 1594.052002,814.296326 1578.426025,812.465759 
	C1574.727905,807.271606 1576.095825,801.030884 1575.716675,795.225281 
	C1574.379272,774.744629 1570.391357,754.885925 1561.635742,736.278503 
	C1542.863159,696.383545 1511.156128,674.521851 1467.406860,670.262512 
	C1447.025146,668.278198 1426.713257,669.103577 1407.073486,675.531982 
	C1368.890625,688.029724 1345.509399,714.949829 1333.398682,752.463196 
	C1327.831299,769.708679 1325.151733,787.538147 1325.051392,805.594604 
	C1324.827271,845.915894 1324.556030,886.251587 1325.394165,926.558777 
	C1325.910889,951.411072 1331.152954,975.607849 1343.506714,997.576660 
	C1364.781250,1035.409302 1398.341675,1053.508057 1440.758301,1056.498291 
	C1458.824463,1057.771973 1476.763428,1056.400513 1494.124146,1050.767090 
	C1529.616089,1039.250122 1552.577271,1014.867004 1565.578247,980.479004 
	C1571.874634,963.824951 1574.963257,946.505676 1575.790527,928.741882 
	C1576.004150,924.155518 1576.646118,919.589172 1577.061035,915.326050 
	C1585.057373,913.211182 1732.349609,912.546326 1747.081421,914.439514 
	C1747.504761,916.349792 1748.441040,918.517822 1748.392212,920.663391 
	C1747.630615,954.089844 1743.885742,987.065063 1733.893188,1019.165588 
	C1713.481079,1084.739258 1673.293091,1133.986938 1612.641357,1166.294067 
	C1580.180908,1183.584473 1545.224854,1193.003418 1508.937378,1197.755615 
	C1469.757690,1202.886475 1430.516846,1202.953491 1391.368164,1197.649292 
	C1323.516479,1188.456299 1263.703369,1162.943237 1217.525269,1110.468384 
	C1189.151978,1078.226440 1171.369019,1040.595947 1161.898193,998.946777 
	C1155.749878,971.909363 1152.635376,944.479553 1152.700073,916.705261 
	C1152.786133,879.713257 1152.352173,842.716309 1152.820801,805.729980 
	C1153.417847,758.620117 1161.056030,712.853516 1181.850220,670.032776 
	C1208.925659,614.277344 1251.649536,574.966858 1308.388672,550.625610 
	C1345.615601,534.655212 1384.892090,527.667358 1425.035278,525.443665 
	C1468.849365,523.016663 1512.335571,525.981934 1554.830933,537.632935 
	C1630.981323,558.511414 1688.106201,602.738403 1722.201416,675.880493 
z"/>
<path fill="#FFFDFE" opacity="1.000000" stroke="none" 
	d="
M1883.510010,1102.467896 
	C1857.430176,1069.328979 1841.489014,1032.416260 1833.172852,991.909058 
	C1828.055542,966.983398 1825.555176,941.886169 1825.647705,916.484131 
	C1825.804321,873.495483 1824.824219,830.465637 1826.395630,787.529053 
	C1828.198853,738.262512 1839.986206,691.217346 1866.120972,648.740356 
	C1897.987061,596.948181 1943.675537,562.325684 2001.091675,543.282471 
	C2055.429199,525.260376 2111.351318,521.735901 2168.025635,527.246826 
	C2201.032715,530.456482 2233.250000,537.208008 2263.884277,550.261597 
	C2338.647949,582.119080 2386.572510,637.596802 2408.779785,715.551697 
	C2409.674316,718.690735 2410.011230,721.988586 2410.688721,725.648804 
	C2408.206055,726.822021 2406.147217,727.692261 2404.182617,728.739746 
	C2388.203125,737.260254 2375.752441,749.459473 2366.823242,765.169495 
	C2365.379883,767.708496 2364.761475,770.784546 2364.103271,773.689758 
	C2361.250244,786.287476 2358.523438,798.913818 2355.597168,812.228088 
	C2320.752197,812.228088 2285.603760,812.228088 2249.474121,812.228088 
	C2249.095459,807.472534 2248.612305,803.270935 2248.449707,799.056824 
	C2247.473389,773.737183 2242.328857,749.497498 2229.765625,727.217957 
	C2210.669678,693.352600 2181.306396,674.685547 2143.053223,670.399658 
	C2120.754150,667.901245 2098.408691,668.610657 2076.861084,676.194092 
	C2044.727661,687.503113 2023.032959,709.698914 2009.933960,740.765808 
	C2001.931519,759.744995 1997.942017,779.709473 1997.702515,800.135315 
	C1997.206177,842.450928 1997.106079,884.783936 1997.764771,927.095337 
	C1998.130737,950.603333 2003.161011,973.442932 2014.200317,994.499084 
	C2030.259644,1025.130371 2054.972656,1044.868652 2088.831299,1052.910767 
	C2114.341064,1058.969849 2139.847412,1059.015381 2164.903809,1051.416504 
	C2206.611084,1038.767822 2231.041260,1009.201599 2242.040039,968.204407 
	C2245.800537,954.186096 2246.468262,939.333862 2248.476318,924.852661 
	C2248.923584,921.626953 2249.066162,918.358948 2249.402588,914.495972 
	C2285.312256,914.495972 2320.468994,914.495972 2356.468994,914.495972 
	C2358.956787,924.800293 2361.522705,935.077393 2363.908447,945.396240 
	C2367.130371,959.331909 2375.459473,970.092468 2386.117432,978.792603 
	C2393.712158,984.992188 2402.624023,989.578430 2412.486816,995.865417 
	C2409.762939,1005.553406 2407.256104,1016.893616 2403.409180,1027.759399 
	C2377.091064,1102.098633 2326.595459,1152.761963 2252.814697,1180.276855 
	C2207.788818,1197.068237 2160.919189,1201.953003 2113.259766,1201.115356 
	C2078.796631,1200.509644 2044.844727,1196.190063 2011.672852,1186.396851 
	C1960.743408,1171.361084 1917.706787,1144.322144 1883.510010,1102.467896 
z"/>
<path fill="#FFFDFE" opacity="1.000000" stroke="none" 
	d="
M2694.621094,1069.999756 
	C2694.542725,1020.015320 2694.470215,971.030945 2694.336182,922.046631 
	C2694.333740,921.161499 2693.595215,920.278259 2692.745850,918.377686 
	C2608.895264,918.377686 2524.721191,918.377686 2440.956543,918.377686 
	C2438.030029,910.529053 2437.309814,815.550842 2439.688721,803.202881 
	C2446.885742,801.132202 3113.077637,800.631958 3123.811035,802.689209 
	C3126.026611,811.028809 3125.991699,908.727539 3123.458740,918.060242 
	C3039.624756,918.060242 2955.468262,918.060242 2869.860107,918.060242 
	C2869.056885,942.640625 2869.575439,966.148071 2869.482666,989.635559 
	C2869.389160,1013.296021 2869.461914,1036.957153 2869.461914,1060.618042 
	C2869.461914,1084.278931 2869.461914,1107.939697 2869.461914,1131.600586 
	C2869.461914,1155.261475 2869.461914,1178.922241 2869.461914,1202.583130 
	C2869.461914,1225.910767 2869.461914,1249.238281 2869.461914,1272.565918 
	C2869.461914,1296.226685 2869.461914,1319.887573 2869.461914,1343.548340 
	C2869.461914,1367.209229 2869.461914,1390.869995 2869.461914,1414.530884 
	C2869.461914,1438.155518 2869.461914,1461.780273 2869.461914,1486.783569 
	C2854.588379,1488.116333 2840.385254,1487.247559 2826.241699,1487.399292 
	C2811.580322,1487.556763 2796.916260,1487.434448 2782.253174,1487.434448 
	C2767.923340,1487.434448 2753.593506,1487.434448 2739.263672,1487.434448 
	C2724.996338,1487.434448 2710.728760,1487.434448 2697.606445,1487.434448 
	C2696.255859,1486.116211 2695.993164,1485.902832 2695.785645,1485.645020 
	C2695.583740,1485.393921 2695.377197,1485.116699 2695.281250,1484.816406 
	C2695.079834,1484.186768 2694.810547,1483.534790 2694.810303,1482.891724 
	C2694.733154,1345.594482 2694.677246,1208.297119 2694.621094,1069.999756 
z"/>
<path fill="#FFFDFE" opacity="1.000000" stroke="none" 
	d="
M3137.914795,1224.110962 
	C3105.134521,1147.169556 3072.668457,1070.921631 3039.812988,993.758667 
	C3043.030518,993.154175 3045.158203,992.408997 3047.286621,992.405518 
	C3090.272949,992.335449 3133.260010,992.450134 3176.245361,992.234375 
	C3182.254395,992.204224 3185.147217,994.433289 3187.266602,999.920593 
	C3212.234375,1064.558838 3237.752441,1128.986328 3262.394775,1193.747314 
	C3277.434326,1233.270752 3291.200928,1273.278564 3305.566650,1313.058960 
	C3306.641846,1316.036133 3307.941650,1318.932373 3311.190674,1322.023438 
	C3312.541016,1318.840576 3314.174561,1315.745972 3315.200439,1312.461670 
	C3335.987061,1245.917114 3363.469482,1181.895264 3388.768311,1117.052246 
	C3403.661621,1078.879395 3418.661865,1040.748291 3433.625732,1002.602905 
	C3437.634766,992.382263 3437.653809,992.353333 3448.743164,992.348633 
	C3488.397217,992.331970 3528.051514,992.329956 3567.705566,992.364990 
	C3570.920654,992.367798 3574.135254,992.693848 3578.374023,992.925659 
	C3577.338135,996.373596 3576.825928,998.872864 3575.858643,1001.181396 
	C3546.888428,1070.312866 3517.871094,1139.424561 3488.865479,1208.541382 
	C3460.503906,1276.124268 3432.143555,1343.707764 3403.790771,1411.294434 
	C3394.641846,1433.103638 3385.337158,1454.850464 3376.502930,1476.786621 
	C3374.109863,1482.729004 3370.603516,1484.548218 3364.440430,1484.507446 
	C3329.119873,1484.273804 3293.794434,1484.170898 3258.476807,1484.572021 
	C3250.823975,1484.659058 3247.299072,1481.731567 3244.473145,1475.022705 
	C3218.994873,1414.541016 3193.232910,1354.178833 3167.554443,1293.781494 
	C3157.779053,1270.789062 3148.004395,1247.796631 3137.914795,1224.110962 
z"/>
<path fill="#67CDE3" opacity="1.000000" stroke="none" 
	d="
M1335.581543,1447.982422 
	C1337.050293,1444.499023 1338.231079,1441.764648 1339.426270,1439.036621 
	C1340.926025,1435.612915 1343.565186,1434.100464 1347.285034,1434.154419 
	C1354.567627,1434.260010 1361.887451,1433.863525 1369.117065,1434.510254 
	C1371.958984,1434.764648 1376.114990,1436.697998 1376.924316,1438.884155 
	C1377.806030,1441.265747 1376.402710,1445.831787 1374.380859,1447.653931 
	C1370.840576,1450.844727 1366.296875,1453.993896 1361.761230,1454.779053 
	C1353.116577,1456.275391 1344.181885,1456.095825 1334.306641,1456.674194 
	C1334.769409,1452.975220 1335.034668,1450.854736 1335.581543,1447.982422 
z"/>
<path fill="#6FCFE5" opacity="1.000000" stroke="none" 
	d="
M799.914917,1448.875000 
	C800.203613,1454.807983 800.145142,1460.068359 800.180542,1465.328003 
	C800.209961,1469.707275 798.340698,1472.145508 793.737427,1472.099731 
	C789.564697,1472.058228 785.391235,1472.090942 779.053528,1472.090942 
	C783.928162,1461.982178 790.221558,1455.482666 796.169312,1448.789551 
	C796.772400,1448.110962 798.436646,1448.375366 799.914917,1448.875000 
z"/>
<path fill="#6ECFE4" opacity="1.000000" stroke="none" 
	d="
M2154.401367,1460.189453 
	C2153.710205,1473.149292 2151.695312,1474.195435 2134.016113,1470.708008 
	C2138.602051,1461.253906 2145.311035,1454.181885 2152.013428,1447.104858 
	C2152.816650,1447.349731 2153.619629,1447.594604 2154.422607,1447.839478 
	C2154.422607,1451.659546 2154.422607,1455.479492 2154.401367,1460.189453 
z"/>
<path fill="#72D0E5" opacity="1.000000" stroke="none" 
	d="
M1833.569580,1451.515991 
	C1835.688965,1449.476562 1837.348877,1447.990112 1839.820923,1445.776367 
	C1842.897339,1454.447876 1840.460571,1462.030029 1839.307373,1469.538452 
	C1839.154785,1470.532471 1836.835327,1471.804565 1835.454956,1471.888550 
	C1830.681152,1472.178467 1825.878906,1472.000244 1820.100586,1472.000244 
	C1822.686157,1462.818115 1828.799683,1458.025391 1833.569580,1451.515991 
z"/>
<path fill="#73D0E5" opacity="1.000000" stroke="none" 
	d="
M1508.213379,1454.149292 
	C1510.767456,1451.191650 1512.904175,1448.815430 1515.837646,1445.553101 
	C1519.066895,1453.863281 1517.731812,1461.001099 1516.928345,1467.963379 
	C1516.752686,1469.485840 1513.944214,1471.653931 1512.158203,1471.857544 
	C1507.376831,1472.402832 1502.492310,1472.043335 1496.277710,1472.043335 
	C1498.781250,1464.068848 1504.110718,1459.915283 1508.213379,1454.149292 
z"/>
<path fill="#69CDE4" opacity="1.000000" stroke="none" 
	d="
M963.494568,1434.103027 
	C964.713196,1434.129883 965.047241,1434.126953 965.378479,1434.156372 
	C969.613708,1434.530396 974.829346,1433.733765 976.405945,1438.934692 
	C978.072021,1444.430664 974.559814,1448.622314 970.463257,1451.690308 
	C960.924927,1458.834351 949.962097,1457.917114 938.410034,1457.332275 
	C938.047668,1448.885132 941.900757,1442.648804 945.467163,1436.512573 
	C946.332886,1435.022949 949.462952,1434.433472 951.632019,1434.210938 
	C955.256958,1433.838989 958.946411,1434.096069 963.494568,1434.103027 
z"/>
<path fill="#6ACDE4" opacity="1.000000" stroke="none" 
	d="
M1184.881592,1440.823242 
	C1186.334473,1438.495972 1187.428589,1435.551514 1188.602539,1435.519287 
	C1197.710693,1435.269653 1206.900513,1434.992554 1215.920288,1436.009277 
	C1219.547363,1436.418213 1219.760010,1440.986816 1218.301880,1444.370117 
	C1215.941162,1449.847900 1211.613525,1453.430542 1206.130005,1455.379883 
	C1197.878052,1458.313599 1189.404419,1458.290527 1179.217896,1456.749023 
	C1181.189331,1451.141602 1182.874512,1446.348267 1184.881592,1440.823242 
z"/>
</svg>